{"title":"Insomnia (PSP + Ipod touch + Zune)","uid":5717918,"size":467193563,"categoryP":"video","categoryS":"handheld","magnet":"?xt=urn:btih:678d836505402b909d9d0f6e941fa97356b45549&amp;dn=Insomnia+%28PSP+%2B+Ipod+touch+%2B+Zune%29&amp;tr=udp%3A%2F%2Ftracker.openbittorrent.com%3A80&amp;tr=udp%3A%2F%2Fopen.demonii.com%3A1337&amp;tr=udp%3A%2F%2Ftracker.coppersurfer.tk%3A6969&amp;tr=udp%3A%2F%2Fexodus.desync.com%3A6969","seeders":0,"leechers":1,"uploader":"on.off.on","files":2,"time":1280180135,"description":"Insomnia \n &lt;a href=&quot;\nhttp://www.imdb.com/title/tt0278504/&quot; rel=&quot;nofollow&quot; target=&quot;_NEW&quot;&gt;\nhttp://www.imdb.com/title/tt0278504/&lt;/a&gt;\n\n\nSubs :\n\nEnglish\n\nSource  :\n\nInsomnia.2002.720p.BluRay.x264-SiNNERS\n\n\nInfo : \n\nID                               : 1\nFormat                           : AVC\nFormat/Info                      : Advanced Video Codec\nFormat profile                   : &lt;a class=&quot;__cf_email__&quot; href=&quot;/cdn-cgi/l/email-protection&quot; data-cfemail=&quot;793b180a1c1510171c39354b5749&quot;&gt;[email&amp;#160;protected]&lt;/a&gt;&lt;script cf-hash='f9e31' type=&quot;text/javascript&quot;&gt;\n/* &lt;![CDATA[ */!function(){try{var t=&quot;currentScript&quot;in document?document.currentScript:function(){for(var t=document.getElementsByTagName(&quot;script&quot;),e=t.length;e--;)if(t[e].getAttribute(&quot;cf-hash&quot;))return t[e]}();if(t&amp;&amp;t.previousSibling){var e,r,n,i,c=t.previousSibling,a=c.getAttribute(&quot;data-cfemail&quot;);if(a){for(e=&quot;&quot;,r=parseInt(a.substr(0,2),16),n=2;a.length-n;n+=2)i=parseInt(a.substr(n,2),16)^r,e+=String.fromCharCode(i);e=document.createTextNode(e),c.parentNode.replaceChild(e,c)}}}catch(u){}}();/* ]]&gt; */&lt;/script&gt;\nFormat settings, CABAC           : No\nFormat settings, ReFrames        : 3 frames\nCodec ID                         : avc1\nCodec ID/Info                    : Advanced Video Coding\nDuration                         : 1h 58mn\nBit rate mode                    : Variable\nBit rate                         : 395 Kbps\nWidth                            : 464 pixels\nHeight                           : 192 pixels\nDisplay aspect ratio             : 2.40:1\nFrame rate mode                  : Variable\nFrame rate                       : 23.976 fps\nMinimum frame rate               : 23.810 fps\nMaximum frame rate               : 24.390 fps\nColor space                      : YUV\nChroma subsampling               : 4:2:0\nBit depth                        : 8 bits\nScan type                        : Progressive\nBits/(Pixel*Frame)               : 0.185\nStream size                      : 334 MiB (75%)\nWriting library                  : x264 core 79\n\nID                               : 2\nFormat                           : AAC\nFormat/Info                      : Advanced Audio Codec\nFormat version                   : Version 4\nFormat profile                   : LC\nFormat settings, SBR             : No\nCodec ID                         : 40\nDuration                         : 1h 58mn\nBit rate mode                    : Variable\nBit rate                         : 128 Kbps\nMaximum bit rate                 : 192 Kbps\nChannel(s)                       : 2 channels\nChannel positions                : Front: L R\nSampling rate                    : 48.0 KHz\nStream size                      : 108 MiB (24%)\n\n\nScreens:\n &lt;a href=&quot;\nhttp://img838.imageshack.us/img838/4578/insomniaooom4vthumbs201.jpg&quot; rel=&quot;nofollow&quot; target=&quot;_NEW&quot;&gt;\nhttp://img838.imageshack.us/img838/4578/insomniaooom4vthumbs201.jpg&lt;/a&gt;\n\n\n\n\n\nPLEASE LET THE TORRENT SEED AND SPREAD THE WORD ABOUT IT! \n\nLet me know what I can do to be your trusted source of Handheld videos.\n &lt;a href=&quot;\nhttp://thepiratebay.se/user/on.off.on/&quot; rel=&quot;nofollow&quot; target=&quot;_NEW&quot;&gt;\nhttp://thepiratebay.se/user/on.off.on/&lt;/a&gt; -OOO","torrent":{"xt":"urn:btih:678d836505402b909d9d0f6e941fa97356b45549","amp;dn":"Insomnia+%28PSP+%2B+Ipod+touch+%2B+Zune%29","amp;tr":["udp%3A%2F%2Ftracker.openbittorrent.com%3A80","udp%3A%2F%2Fopen.demonii.com%3A1337","udp%3A%2F%2Ftracker.coppersurfer.tk%3A6969","udp%3A%2F%2Fexodus.desync.com%3A6969"],"infoHash":"678d836505402b909d9d0f6e941fa97356b45549","infoHashBuffer":{"type":"Buffer","data":[103,141,131,101,5,64,43,144,157,157,15,110,148,31,169,115,86,180,85,73]},"announce":[],"urlList":[]}}